<mxfile host="app.diagrams.net" modified="2023-08-11T08:51:27.736Z" agent="Mozilla/5.0 (Windows NT 10.0; Win64; x64; rv:109.0) Gecko/20100101 Firefox/116.0" version="21.6.7" etag="kRP12Ar2URiZDCVvKfov" type="github">
  <diagram name="Sivu-1" id="Kdaf-YAwTDzhC9WLt6uo">
    <mxGraphModel>
      <root>
        <mxCell id="0" />
        <mxCell id="1" parent="0" />
      </root>
    </mxGraphModel>
  </diagram>
</mxfile>
